<svg width="256" height="256" viewBox="0 0 256 256" xmlns="http://www.w3.org/2000/svg"><g fill="none" fill-rule="evenodd"><rect fill="#EE4871" width="256" height="256"/><rect fill="#EE4871" width="256" height="256"/><path d="M2.55239202 2.01033178C2.70250373.703153165 3.401238.000544657758 4.69684502.000544657758L7.83846868.000544657758C9.03578827.000544657758 9.78277274.552464519 10.1830706 1.70713896L16.5163552 17.6492715C17.3151639 19.7607281 18.3123346 22.8798015 18.3123346 22.8798015L18.412409 22.8798015C18.412409 22.8798015 19.3595425 19.7607281 20.1583512 17.6492715L26.4916357 1.70713896C26.8901466.552464519 27.6389181.000544657758 28.8844879.000544657758L31.9760743.000544657758C33.2734684.000544657758 34.0204528.703153165 34.1205273 2.01033178L36.6634912 33.5387538C36.7635657 34.8967672 36.0648314 35.7010451 34.6691499 35.7010451L32.4264094 35.7010451C31.1290154 35.7010451 30.3802439 34.9966211 30.2819564 33.6894425L28.9345251 15.7393383C28.7844134 13.3737081 28.8844879 10.207431 28.8844879 10.207431L28.7844134 10.207431C28.7844134 10.207431 27.6871683 13.6750854 26.8901466 15.7393383L21.7541816 27.9069926C21.3538838 29.0126479 20.6051122 29.5645677 19.4095797 29.5645677L17.3151639 29.5645677C16.0678071 29.5645677 15.3208226 29.0126479 14.9205247 27.9069926L9.83459702 15.7393383C9.03578827 13.6750854 7.88850591 10.1565963 7.88850591 10.1565963L7.79021848 10.1565963C7.79021848 10.1565963 7.88850591 13.3737081 7.74018125 15.7393383L6.39274994 33.6894425C6.29267547 34.9966211 5.59572824 35.7010451 4.24829693 35.7010451L2.00376945 35.7010451C.608087955 35.7010451-.090646316 34.8967672.00942815768 33.5387538L2.55239202 2.01033178ZM49.6856821 31.426571C53.2258166 31.426571 55.5203813 27.8064125 55.5203813 24.6891546L55.5203813 23.734188 54.4731734 23.734188C51.2815125 23.734188 45.8453241 24.2352731 45.8453241 28.0569551 45.8453241 29.7671804 47.1427182 31.426571 49.6856821 31.426571M54.4231362 19.8616713 55.4703441 19.8616713 55.4703441 19.2571012C55.4703441 15.8893008 53.3276781 14.7309953 50.7328899 14.7309953 48.5884369 14.7309953 46.6423458 15.5370887 45.4468133 16.190678 44.1994565 16.7444134 43.252323 16.5428901 42.6536632 15.3355654L42.156865 14.3805988C41.5564181 13.2241088 41.7565671 12.2164919 42.9520996 11.5647182 44.5997543 10.7096055 47.4911918 9.45144606 51.2815125 9.45144606 57.8649832 9.45144606 61.8054156 13.1732741 61.8054156 19.660148L61.8054156 33.5888623C61.8054156 34.9958949 61.1066814 35.7003189 59.7092128 35.7003189L58.0133079 35.7003189C56.6676636 35.7003189 55.9707164 34.9958949 55.9707164 33.5888623L55.9707164 32.583061C55.9707164 31.878637 56.0690038 31.4774058 56.0690038 31.4774058L55.9707164 31.4774058C55.9707164 31.4774058 53.5760772 36.304889 47.9897771 36.304889 43.3523975 36.304889 39.5620768 33.2856695 39.5620768 28.6106904 39.5620768 21.1180152 48.7385487 19.8616713 54.4231362 19.8616713M66.3956173 2.11145657C66.3956173.751627705 67.0943516 0 68.4399958 0L70.6344861 0C71.9801303 0 72.6788646.751627705 72.6788646 2.11145657L72.6788646 27.2038395C72.6788646 29.7165272 73.7260725 30.1685932 74.6732059 30.2702626 75.5720891 30.3701165 76.2207862 30.9238519 76.2207862 32.0803419L76.2207862 33.7905673C76.2207862 35.0959304 75.6221264 35.9528586 74.1245833 35.9528586 70.7345606 35.9528586 66.3956173 35.0487267 66.3956173 27.7067401L66.3956173 2.11145657ZM91.1820987 9.45235383C95.2708557 9.45235383 98.0139686 10.9610558 99.5097245 12.0176919 100.558719 12.7221159 100.60697 13.7769364 99.9100224 14.8825917L99.2613254 15.888393C98.5143409 17.044883 97.6654949 17.044883 96.4681753 16.4421284 95.4209675 15.7377043 93.7250625 14.8825917 91.5305723 14.8825917 86.8431554 14.8825917 83.8016062 18.4519155 83.8016062 22.8273328 83.8016062 27.1519154 86.8431554 30.8737434 91.7307212 30.8737434 94.2254349 30.8737434 96.2197762 29.7662726 97.4153088 28.9129755 98.6626656 28.2085515 99.609799 28.3592401 100.258496 29.5647493L100.757081 30.5215314C101.355741 31.6271867 101.205629 32.632988 100.208459 33.337412 98.6626656 34.493902 95.5710792 36.3039813 91.1820987 36.3039813 82.7543984 36.3039813 77.3682472 30.320008 77.3682472 22.8799831 77.3682472 15.5870157 82.7543984 9.45235383 91.1820987 9.45235383M116.221626 30.8735619C120.36042 30.8735619 123.802267 27.6564501 123.802267 22.8798015 123.802267 18.1521722 120.36042 14.8824101 116.221626 14.8824101 112.082831 14.8824101 108.691021 18.1521722 108.691021 22.8798015 108.691021 27.6564501 112.082831 30.8735619 116.221626 30.8735619M116.221626 9.45217227C123.950592 9.45217227 130.235626 15.0349143 130.235626 22.8798015 130.235626 30.7737079 123.950592 36.3037997 116.221626 36.3037997 108.490872 36.3037997 102.257662 30.7737079 102.257662 22.8798015 102.257662 15.0349143 108.490872 9.45217227 116.221626 9.45217227M133.5799 2.11145657C133.5799.751627705 134.278635 0 135.624279 0L137.818769 0C139.164413 0 139.863148.751627705 139.863148 2.11145657L139.863148 27.2038395C139.863148 29.7165272 140.910356 30.1685932 141.857489 30.2702626 142.756372 30.3701165 143.403282 30.9238519 143.403282 32.0803419L143.403282 33.7905673C143.403282 35.0959304 142.806409 35.9528586 141.308866 35.9528586 137.917057 35.9528586 133.5799 35.0487267 133.5799 27.7067401L133.5799 2.11145657ZM146.297758 12.1685621C146.297758 10.8087332 146.996492 10.05529 148.343923 10.05529L150.288227 10.05529C151.633872 10.05529 152.330819 10.8087332 152.330819 12.1685621L152.330819 13.7262832C152.330819 14.2800186 152.232531 14.8827732 152.232531 14.8827732L152.330819 14.8827732C153.578176 12.3700854 156.671549 9.45253538 160.660232 9.45253538 164.502377 9.45253538 167.043553 11.2626147 168.090761 14.7320846L168.190836 14.7320846C169.53648 12.0668926 172.878253 9.45253538 176.868722 9.45253538 182.154799 9.45253538 185.196348 12.4699394 185.196348 19.2073558L185.196348 33.5881361C185.196348 34.9969842 184.449364 35.6995927 183.101932 35.6995927L180.957479 35.6995927C179.561798 35.6995927 178.863064 34.9969842 178.863064 33.5881361L178.863064 20.4146805C178.863064 17.498946 178.316228 15.2840044 175.372966 15.2840044 171.08406 15.2840044 168.88957 19.7102565 168.88957 24.1855277L168.88957 33.5881361C168.88957 34.9969842 168.190836 35.6995927 166.843404 35.6995927L164.650701 35.6995927C163.30327 35.6995927 162.556286 34.9969842 162.556286 33.5881361L162.556286 20.4146805C162.556286 17.6496346 162.157775 15.2840044 159.164476 15.2840044 154.675421 15.2840044 152.582792 19.9099643 152.582792 24.1855277L152.582792 33.5881361C152.582792 34.9969842 151.884058 35.6995927 150.536626 35.6995927L148.343923 35.6995927C146.996492 35.6995927 146.297758 34.9969842 146.297758 33.5881361L146.297758 12.1685621ZM190.389141 31.8299809C190.389141 30.470152 191.087875 29.7167088 192.435307 29.7167088L194.427861 29.7167088C195.775292 29.7167088 196.524064 30.470152 196.524064 31.8299809L196.524064 33.5892254C196.524064 34.996258 195.775292 35.700682 194.427861 35.700682L192.435307 35.700682C191.087875 35.700682 190.389141 34.996258 190.389141 33.5892254L190.389141 31.8299809ZM190.58929 23.3315044 190.188992 2.16065732C190.188992.751809258 190.887726.000181552586 192.235158.000181552586L194.57976.000181552586C195.925404.000181552586 196.674175.751809258 196.622351 2.16065732L196.22384 23.3315044C196.22384 24.6895177 195.476856 25.3921262 194.129425 25.3921262L192.683706 25.3921262C191.388099 25.3921262 190.639327 24.6895177 190.58929 23.3315044L190.58929 23.3315044Z" transform="translate(29.434 109.689)" fill="#FFF"/></g></svg>